<svg width="52" height="41" viewBox="0 0 52 41" fill="none" xmlns="http://www.w3.org/2000/svg">
<path d="M3.45645 8.01693L3.45646 8.01694L9.6321 15.1769C10.3633 16.0246 11.5555 16.4386 12.7565 16.3813C13.9587 16.3241 15.0698 15.8004 15.6616 14.903L24.7449 1.12942L24.7449 1.12939C25.0191 0.71361 25.5153 0.5 26 0.5C26.4847 0.5 26.9809 0.71361 27.2551 1.12939L27.2551 1.12942L36.3384 14.903C36.9303 15.8004 38.0414 16.3241 39.2436 16.3813C40.4445 16.4385 41.6367 16.0246 42.3678 15.1769L42.3678 15.1769L48.5434 8.01694L48.5434 8.01691C48.8623 7.6473 49.3424 7.53806 49.7366 7.60433C50.1281 7.67016 50.5832 7.9469 50.656 8.49348C50.656 8.49353 50.656 8.49358 50.656 8.49363L50.1604 8.5596L3.45645 8.01693ZM3.45645 8.01693C3.13762 7.64731 2.65754 7.53806 2.26332 7.60434M3.45645 8.01693L2.26332 7.60434M2.26332 7.60434C1.87173 7.67017 1.41676 7.94695 1.34387 8.49348L2.26332 7.60434Z" fill="#5864A0" stroke="#5864A0" stroke-linejoin="round"/>
</svg>
