<svg width="50" height="55" viewBox="0 0 50 55" fill="none" xmlns="http://www.w3.org/2000/svg">
<path fill-rule="evenodd" clip-rule="evenodd" d="M9.48889 4.96667C14.6917 1.22222 20.85 0 25 0C34.7944 0 41.1833 4.14444 45.0333 9.48889C48.7778 14.6917 50 20.85 50 25V50C49.9999 50.5493 49.8369 51.0863 49.5317 51.5429C49.2264 51.9996 48.7926 52.3556 48.2851 52.5658C47.7776 52.776 47.2192 52.831 46.6805 52.7238C46.1417 52.6167 45.6468 52.3523 45.2583 51.9639L41.6667 48.3722L37.2611 52.7778C36.2193 53.8193 34.8065 54.4044 33.3333 54.4044C31.8602 54.4044 30.4474 53.8193 29.4056 52.7778L25 48.3722L20.5944 52.7778C19.5526 53.8193 18.1398 54.4044 16.6667 54.4044C15.1935 54.4044 13.7807 53.8193 12.7389 52.7778L8.33333 48.3722L4.74167 51.9639C4.35319 52.3523 3.85829 52.6167 3.31953 52.7238C2.78077 52.831 2.22235 52.776 1.71485 52.5658C1.20735 52.3556 0.773563 51.9996 0.468329 51.5429C0.163095 51.0863 0.00011729 50.5493 0 50V25C0 15.2056 4.14444 8.81667 9.48889 4.96667ZM11.1111 22.2222C11.1111 20.7488 11.6964 19.3357 12.7383 18.2939C13.7802 17.252 15.1932 16.6667 16.6667 16.6667C18.1401 16.6667 19.5532 17.252 20.595 18.2939C21.6369 19.3357 22.2222 20.7488 22.2222 22.2222C22.2222 23.6957 21.6369 25.1087 20.595 26.1506C19.5532 27.1925 18.1401 27.7778 16.6667 27.7778C15.1932 27.7778 13.7802 27.1925 12.7383 26.1506C11.6964 25.1087 11.1111 23.6957 11.1111 22.2222ZM27.7778 22.2222C27.7778 20.7488 28.3631 19.3357 29.405 18.2939C30.4468 17.252 31.8599 16.6667 33.3333 16.6667C34.8068 16.6667 36.2198 17.252 37.2617 18.2939C38.3036 19.3357 38.8889 20.7488 38.8889 22.2222C38.8889 23.6957 38.3036 25.1087 37.2617 26.1506C36.2198 27.1925 34.8068 27.7778 33.3333 27.7778C31.8599 27.7778 30.4468 27.1925 29.405 26.1506C28.3631 25.1087 27.7778 23.6957 27.7778 22.2222Z" fill="#5864A0"/>
</svg>
