<svg width="50" height="52" viewBox="0 0 50 52" fill="none" xmlns="http://www.w3.org/2000/svg">
<path d="M1.24186 17.8811L23.7496 30.8856C24.2497 31.1357 24.4998 31.1357 25 31.1357C25.5002 31.1357 25.7503 31.1357 26.2504 30.8856L48.7581 17.8811C49.2583 17.631 49.5084 17.381 49.7585 16.8808C50.2587 15.6304 50.0086 14.1298 48.7581 13.3796L26.2504 0.375129C25.5002 -0.125043 24.4998 -0.125043 23.7496 0.375129L1.24186 13.3796C0.741691 13.6297 0.491605 13.8798 0.241519 14.3799C-0.258652 15.6304 -0.00856641 17.1309 1.24186 17.8811ZM48.7581 23.383L48.258 23.1329L26.2504 35.8873C25.5002 36.3875 24.4998 36.3875 23.7496 35.8873L1.74203 23.1329L1.24186 23.383C-0.00856641 24.1333 -0.258652 25.6338 0.241519 26.8842C0.491605 27.3844 0.741691 27.6345 1.24186 27.8846L23.7496 40.889C24.4998 41.3892 25.5002 41.3892 26.2504 40.889L48.7581 27.8846C50.0086 27.1343 50.2587 25.6338 49.7585 24.3834C49.5084 23.8832 49.2583 23.6331 48.7581 23.383ZM48.7581 33.3864L48.258 33.1364L26.2504 45.8907C25.5002 46.3909 24.4998 46.3909 23.7496 45.8907L1.74203 33.1364L1.24186 33.3864C-0.00856641 34.1367 -0.258652 35.6372 0.241519 36.8876C0.491605 37.3878 0.741691 37.6379 1.24186 37.888L23.7496 50.8924C24.4998 51.3926 25.5002 51.3926 26.2504 50.8924L48.7581 37.888C50.0086 37.1377 50.2587 35.6372 49.7585 34.3868C49.5084 33.8866 49.2583 33.6365 48.7581 33.3864Z" fill="#5864A0"/>
</svg>
