<svg width="58" height="59" viewBox="0 0 58 59" fill="none" xmlns="http://www.w3.org/2000/svg">
<path d="M52.6967 19.9727C51.442 16.9846 49.6168 14.2685 47.3226 11.976C45.0353 9.67956 42.3183 7.85371 39.3259 6.60217C36.2603 5.31384 32.9666 4.65345 29.6403 4.66021L29.5284 4.66021C26.1452 4.67695 22.8738 5.34659 19.7925 6.66355C16.8257 7.92792 14.1342 9.75701 11.8684 12.0486C9.59651 14.3359 7.79216 17.0425 6.55589 20.0173C5.27258 23.1109 4.62232 26.4293 4.64338 29.7774C4.66016 33.6501 5.58845 37.495 7.32202 40.9325L7.32202 49.4146C7.32202 50.832 8.474 51.9816 9.88881 51.9816L18.3777 51.9816C21.8385 53.7242 25.6576 54.6412 29.534 54.6602L29.6514 54.6602C32.9955 54.6602 36.2334 54.0128 39.2867 52.7461C42.264 51.5095 44.9709 49.7049 47.2555 47.4336C49.5595 45.1512 51.3713 42.4838 52.6408 39.5095C53.9549 36.4291 54.626 33.1535 54.6427 29.7718C54.6539 26.3734 53.9941 23.0754 52.6967 19.9727ZM18.4783 32.3387C17.002 32.3387 15.7997 31.139 15.7997 29.6602C15.7997 28.1814 17.002 26.9816 18.4783 26.9816C19.9547 26.9816 21.157 28.1814 21.157 29.6602C21.157 31.139 19.9603 32.3387 18.4783 32.3387ZM29.6403 32.3387C28.1639 32.3387 26.9616 31.139 26.9616 29.6602C26.9616 28.1814 28.1639 26.9816 29.6403 26.9816C31.1166 26.9816 32.3189 28.1814 32.3189 29.6602C32.3189 31.139 31.1166 32.3387 29.6403 32.3387ZM40.8022 32.3387C39.3259 32.3387 38.1235 31.139 38.1235 29.6602C38.1235 28.1814 39.3259 26.9816 40.8022 26.9816C42.2785 26.9816 43.4808 28.1814 43.4808 29.6602C43.4808 31.139 42.2785 32.3387 40.8022 32.3387Z" fill="#12237B"/>
</svg>
