<svg width="50" height="50" viewBox="0 0 50 50" fill="none" xmlns="http://www.w3.org/2000/svg">
<path d="M24.9999 0.000260658C20.0554 0.000260658 15.2219 1.46648 11.1107 4.2135C6.99949 6.96052 3.79519 10.865 1.90301 15.4331C0.0108321 20.0012 -0.484249 25.0279 0.480377 29.8774C1.445 34.7269 3.82601 39.1814 7.3223 42.6777C10.8186 46.174 15.2731 48.555 20.1226 49.5196C24.9721 50.4842 29.9988 49.9892 34.5669 48.097C39.135 46.2048 43.0395 43.0005 45.7865 38.8893C48.5335 34.7781 49.9997 29.9446 49.9997 25.0001C50.0148 21.7129 49.3784 18.4552 48.1274 15.4153C46.8764 12.3754 45.0354 9.61346 42.711 7.28901C40.3865 4.96455 37.6246 3.12365 34.5847 1.87262C31.5448 0.621586 28.2871 -0.0147842 24.9999 0.000260658ZM24.9999 9.09112C26.7979 9.09112 28.5555 9.62429 30.0505 10.6232C31.5455 11.6221 32.7107 13.0419 33.3987 14.7031C34.0868 16.3642 34.2668 18.1921 33.9161 19.9555C33.5653 21.719 32.6995 23.3388 31.4281 24.6102C30.1567 25.8816 28.5369 26.7474 26.7734 27.0982C25.01 27.4489 23.1821 27.2689 21.521 26.5808C19.8598 25.8928 18.44 24.7276 17.4411 23.2326C16.4422 21.7376 15.909 19.98 15.909 18.182C15.909 15.7709 16.8668 13.4586 18.5717 11.7538C20.2765 10.0489 22.5888 9.09112 24.9999 9.09112ZM24.9999 45.4546C19.8616 45.4217 14.9194 43.4773 11.1363 40C15.3958 37.6856 20.1528 36.4379 24.9999 36.3637C29.847 36.4379 34.6039 37.6856 38.8634 40C35.0803 43.4773 30.1382 45.4217 24.9999 45.4546Z" fill="#5864A0"/>
</svg>
