<svg width="50" height="50" viewBox="0 0 50 50" fill="none" xmlns="http://www.w3.org/2000/svg">
<path d="M39.8751 26.9583C39.9585 26.3333 40.0001 25.6875 40.0001 25C40.0001 24.3333 39.9585 23.6667 39.8543 23.0417L44.0835 19.75C44.4585 19.4583 44.5626 18.8958 44.3335 18.4792L40.3335 11.5625C40.0835 11.1042 39.5626 10.9583 39.1043 11.1042L34.1251 13.1042C33.0835 12.3125 31.9793 11.6458 30.7501 11.1458L30.0001 5.85417C29.9168 5.35417 29.5001 5 29.0001 5H21.0001C20.5001 5 20.1043 5.35417 20.021 5.85417L19.271 11.1458C18.0418 11.6458 16.9168 12.3333 15.896 13.1042L10.9168 11.1042C10.4585 10.9375 9.93763 11.1042 9.68763 11.5625L5.70846 18.4792C5.45846 18.9167 5.54179 19.4583 5.95846 19.75L10.1876 23.0417C10.0835 23.6667 10.0001 24.3542 10.0001 25C10.0001 25.6458 10.0418 26.3333 10.146 26.9583L5.91679 30.25C5.54179 30.5417 5.43763 31.1042 5.66679 31.5208L9.66679 38.4375C9.91679 38.8958 10.4376 39.0417 10.896 38.8958L15.8751 36.8958C16.9168 37.6875 18.021 38.3542 19.2501 38.8542L20.0001 44.1458C20.1043 44.6458 20.5001 45 21.0001 45H29.0001C29.5001 45 29.9168 44.6458 29.9793 44.1458L30.7293 38.8542C31.9585 38.3542 33.0835 37.6875 34.1043 36.8958L39.0835 38.8958C39.5418 39.0625 40.0626 38.8958 40.3126 38.4375L44.3126 31.5208C44.5626 31.0625 44.4585 30.5417 44.0626 30.25L39.8751 26.9583ZM25.0001 32.5C20.8751 32.5 17.5001 29.125 17.5001 25C17.5001 20.875 20.8751 17.5 25.0001 17.5C29.1251 17.5 32.5001 20.875 32.5001 25C32.5001 29.125 29.1251 32.5 25.0001 32.5Z" fill="#5864A0"/>
</svg>
