<svg width="50" height="48" viewBox="0 0 50 48" fill="none" xmlns="http://www.w3.org/2000/svg">
<path fill-rule="evenodd" clip-rule="evenodd" d="M46.4286 26.4793C48.4011 26.4793 50 28.0783 50 30.0506V40.7649C50 44.7099 46.8021 47.9078 42.8571 47.9078H7.14286C3.19796 47.9078 0 44.7099 0 40.7649V30.0506C0 28.0783 1.599 26.4793 3.57143 26.4793C5.54386 26.4793 7.14286 28.0783 7.14286 30.0506V40.7649H42.8571V30.0506C42.8571 28.0783 44.4561 26.4793 46.4286 26.4793ZM25 0L38.2396 13.2396C39.6343 14.6344 39.6343 16.8957 38.2396 18.2904C36.845 19.6851 34.5836 19.6851 33.1889 18.2904L28.5714 13.6729V30.0506C28.5714 32.0231 26.9724 33.6221 25 33.6221C23.0276 33.6221 21.4286 32.0231 21.4286 30.0506V13.6729L16.8111 18.2904C15.4164 19.6851 13.1551 19.6851 11.7603 18.2904C10.3656 16.8957 10.3656 14.6344 11.7603 13.2396L25 0Z" fill="#5864A0"/>
</svg>
